<svg width="25" height="25" viewBox="0 0 25 25" fill="none" xmlns="http://www.w3.org/2000/svg">
<path d="M21.8516 10.4055H19.7705V4.16216H20.811V2.08105H4.16216V4.16216H5.20271V10.4055H3.12161C2.84564 10.4055 2.58097 10.5151 2.38583 10.7102C2.19068 10.9054 2.08105 11.1701 2.08105 11.446V20.811H22.8921V11.446C22.8921 11.1701 22.7825 10.9054 22.5873 10.7102C22.3922 10.5151 22.1275 10.4055 21.8516 10.4055ZM14.5677 18.7299V14.5677H10.4055V18.7299H7.28382V4.16216H17.6893V18.7299H14.5677Z" fill="white"/>
<path d="M9.36499 6.24341H11.4461V8.32451H9.36499V6.24341ZM13.5272 6.24341H15.6083V8.32451H13.5272V6.24341ZM9.36499 10.4056H11.4461V12.4867H9.36499V10.4056ZM13.5272 10.4056H15.6083V12.4867H13.5272V10.4056Z" fill="white"/>
</svg>
