<svg width="61" height="60" viewBox="0 0 61 60" fill="none" xmlns="http://www.w3.org/2000/svg">
<path d="M54.0112 23.3961C53.1329 20.0339 51.5299 17.3914 48.1678 17.3914H43.689V22.6765C43.689 26.7583 40.1656 30.1998 36.4039 30.1998H24.4713C21.1911 30.1998 18.6279 33.0037 18.6279 36.284V47.5739C18.6279 50.6929 21.4317 52.6159 24.4713 53.6556C28.1561 54.7771 31.7564 55.0178 36.3196 53.6556C39.2822 52.7747 42.1655 51.0949 42.1655 47.5714V43.0877H30.3967V41.6486H48.1678C51.5299 41.6486 52.8922 39.2467 54.0112 35.6438C55.2122 31.7209 55.2122 28.118 54.0112 23.3961ZM37.0391 45.8097C38.2426 45.8097 39.2822 46.8519 39.2822 48.0528C39.2822 49.2538 38.2401 50.2934 37.0416 50.2934C35.8407 50.3728 34.7985 49.2513 34.7985 48.0528C34.7191 46.8519 35.7588 45.8097 37.0416 45.8097M23.9155 28.6788H35.7638C39.044 28.6788 41.6072 25.9568 41.6072 22.5947V11.466C41.6072 8.34453 38.8852 5.94263 35.7613 5.38185C31.8408 4.82356 27.5159 4.82356 23.9155 5.38185C18.871 6.26272 18.0696 8.10384 18.0696 11.466V15.9497H29.9178V17.3889H13.7447C10.3825 17.3889 7.34043 19.5526 6.45957 23.3936C5.33802 27.8773 5.33802 30.6787 6.45957 35.3237C7.34043 38.8472 9.26344 41.3285 12.7844 41.3285H16.6279V35.9639C16.5461 32.041 19.9901 28.6788 23.913 28.6788M23.1935 12.9076C22.6028 12.8956 22.0396 12.6558 21.6215 12.2382C21.2035 11.8207 20.9631 11.2577 20.9504 10.667C20.9504 9.46608 21.9925 8.42393 23.191 8.42393C24.3895 8.42393 25.4341 9.46608 25.4341 10.667C25.4341 11.868 24.3944 12.9076 23.1935 12.9076Z" fill="#FFFDFD"/>
</svg>
