<svg width="74" height="68" viewBox="0 0 74 68" fill="none" xmlns="http://www.w3.org/2000/svg">
<ellipse cx="36.8698" cy="34" rx="36.7621" ry="34" fill="#FFAAB9"/>
<path d="M7.52173 22.1953C9.49048 22.2656 11.5413 22.3008 13.6741 22.3008H15.6956C16.551 22.2891 18.0276 22.2832 20.1252 22.2832C22.2346 22.2715 24.0334 22.2598 25.5217 22.248C27.0217 22.2363 28.51 22.207 29.9866 22.1602C30.0803 22.9688 30.2795 23.8125 30.5842 24.6914C30.8889 25.5586 31.1819 26.2734 31.4631 26.8359C31.7444 27.3867 32.1135 28.0547 32.5706 28.8398C32.4768 29.0391 32.2717 29.1973 31.9553 29.3145C31.5334 28.5176 31.0237 27.8086 30.426 27.1875C29.8284 26.5664 29.0725 25.9805 28.1584 25.4297C27.2561 24.8789 26.1252 24.4277 24.7659 24.0762C23.4182 23.7246 21.8831 23.4902 20.1604 23.373H15.6956C15.5432 28.4355 15.467 32.2617 15.467 34.8516H20.4768C20.7698 34.8516 21.0452 34.8281 21.303 34.7812C21.5608 34.7227 21.801 34.6289 22.0237 34.5C22.2581 34.3711 22.4573 34.248 22.6213 34.1309C22.7971 34.002 22.9788 33.8145 23.1663 33.5684C23.3655 33.3105 23.5237 33.0996 23.6409 32.9355C23.7581 32.7715 23.9045 32.5137 24.0803 32.1621C24.2561 31.7988 24.3909 31.5234 24.4846 31.3359C24.5784 31.1484 24.719 30.8379 24.9065 30.4043C25.1057 29.9707 25.2522 29.6543 25.3459 29.4551C25.7561 29.6309 25.9788 29.7773 26.0139 29.8945C25.3225 31.6992 24.9768 33.5332 24.9768 35.3965C24.9768 37.248 25.3225 39.0879 26.0139 40.916C25.9319 41.0801 25.7092 41.2324 25.3459 41.373C24.6311 39.6504 24.0862 38.4961 23.7112 37.9102C22.844 36.6094 21.7659 35.9531 20.4768 35.9414H15.467C15.467 38.4609 15.5315 41.6777 15.6604 45.5918C15.6721 45.8965 15.8069 46.1602 16.0647 46.3828C16.3225 46.5938 16.6917 46.7578 17.1721 46.875C17.6643 46.9922 18.0745 47.0801 18.4026 47.1387C18.7424 47.1855 19.1819 47.2324 19.7209 47.2793C19.7678 47.5137 19.7913 47.6719 19.7913 47.7539C19.7913 47.8477 19.7678 47.9648 19.7209 48.1055C17.7288 48.0352 15.6897 48 13.6038 48C11.4944 48 9.45532 48.0352 7.48657 48.1055C7.4397 47.9648 7.41626 47.8477 7.41626 47.7539C7.41626 47.6719 7.4397 47.5137 7.48657 47.2793C7.83813 47.2441 8.11938 47.2148 8.33032 47.1914C8.54126 47.168 8.82837 47.127 9.19165 47.0684C9.56665 47.0098 9.86548 46.9453 10.0881 46.875C10.3225 46.793 10.5627 46.6934 10.8088 46.5762C11.0549 46.459 11.2366 46.3184 11.3538 46.1543C11.4827 45.9902 11.5471 45.8027 11.5471 45.5918C11.6877 41.9238 11.7581 38.2266 11.7581 34.5C11.7581 30.7031 11.6995 27.4277 11.5823 24.6738C11.5706 24.3691 11.4358 24.1113 11.178 23.9004C10.9319 23.6895 10.5569 23.5254 10.053 23.4082C9.54907 23.291 9.14478 23.2148 8.84009 23.1797C8.5354 23.1328 8.09595 23.0801 7.52173 23.0215C7.47485 22.8105 7.45142 22.6641 7.45142 22.582C7.45142 22.5117 7.47485 22.3828 7.52173 22.1953ZM34.3108 22.1602C36.5139 22.2539 39.2854 22.3008 42.6252 22.3008L49.428 40.7227H49.5159L56.5999 22.3008H58.6213C60.0745 22.3008 62.1252 22.2539 64.7737 22.1602C64.8206 22.3477 64.844 22.4766 64.844 22.5469C64.844 22.6289 64.8206 22.7754 64.7737 22.9863C64.3518 23.0215 64.012 23.0566 63.7542 23.0918C63.4963 23.127 63.1506 23.1855 62.717 23.2676C62.2952 23.3496 61.9553 23.4492 61.6975 23.5664C61.4397 23.6719 61.2112 23.8242 61.012 24.0234C60.8127 24.2109 60.7073 24.4277 60.6956 24.6738C60.5784 27.4277 60.5198 30.7031 60.5198 34.5C60.5198 38.3555 60.5959 42.0527 60.7483 45.5918C60.76 45.8965 60.8948 46.1602 61.1526 46.3828C61.4104 46.5938 61.7795 46.7578 62.26 46.875C62.7522 46.9922 63.1624 47.0801 63.4905 47.1387C63.8303 47.1855 64.2698 47.2324 64.8088 47.2793C64.8557 47.4668 64.8792 47.625 64.8792 47.7539C64.8792 47.8477 64.8557 47.9648 64.8088 48.1055C62.8284 48.0352 60.7893 48 58.6917 48C56.5823 48 54.5432 48.0352 52.5745 48.1055C52.5276 47.9648 52.5042 47.8477 52.5042 47.7539C52.5042 47.5547 52.5276 47.3965 52.5745 47.2793C53.1135 47.2324 53.5471 47.1855 53.8752 47.1387C54.2151 47.0801 54.6252 46.9922 55.1057 46.875C55.5979 46.7578 55.9729 46.5938 56.2307 46.3828C56.4885 46.1602 56.6233 45.8965 56.635 45.5918C56.7522 41.9355 56.8108 38.6719 56.8108 35.8008C56.8108 33.0469 56.7522 29.9121 56.635 26.3965H56.4944L48.4612 47.5605H48.2854L39.7249 25.9746H39.5315C39.4377 28.8223 39.3909 32.0977 39.3909 35.8008C39.3909 38.5195 39.4495 41.6953 39.5667 45.3281C39.5901 46.3945 40.885 47.0449 43.4514 47.2793C43.51 47.4785 43.5393 47.6367 43.5393 47.7539C43.5393 47.8711 43.51 47.9883 43.4514 48.1055C41.5881 48.0352 39.9241 48 38.4592 48C37.5217 48 35.9514 48.0352 33.7483 48.1055C33.6897 47.9883 33.6604 47.8711 33.6604 47.7539C33.6604 47.5547 33.6897 47.3965 33.7483 47.2793C36.3381 47.0332 37.6331 46.3828 37.6331 45.3281C37.7737 41.6719 37.844 38.0625 37.844 34.5C37.844 31.9336 37.8088 29.209 37.7385 26.3262C37.7268 25.834 37.6975 25.4238 37.6506 25.0957C37.6038 24.7559 37.5159 24.4629 37.387 24.2168C37.2581 23.9707 37.1233 23.7773 36.9827 23.6367C36.842 23.4961 36.6252 23.373 36.3323 23.2676C36.0393 23.1504 35.7522 23.0684 35.4709 23.0215C35.2014 22.9629 34.8147 22.8984 34.3108 22.8281C34.2639 22.7344 34.2405 22.6289 34.2405 22.5117C34.2405 22.3711 34.2639 22.2539 34.3108 22.1602Z" fill="#FFFEFE"/>
</svg>
