<svg width="25" height="25" viewBox="0 0 25 25" fill="none" xmlns="http://www.w3.org/2000/svg">
<path d="M21.8515 16.6488V10.5095L13.4751 15.0619C13.1629 15.2353 12.8334 15.3221 12.4865 15.3221C12.1397 15.3221 11.8102 15.2353 11.498 15.0619L2.70534 10.2754C2.51458 10.1713 2.38 10.0413 2.30161 9.88517C2.22322 9.72909 2.18437 9.55566 2.18507 9.3649C2.18576 9.17413 2.22496 9.0007 2.30265 8.84462C2.38034 8.68854 2.51458 8.55847 2.70534 8.45441L11.498 3.66787C11.6541 3.58116 11.8147 3.51595 11.9798 3.47225C12.1449 3.42854 12.3138 3.40704 12.4865 3.40773C12.6593 3.40842 12.8285 3.43028 12.9943 3.47329C13.1601 3.5163 13.3204 3.58116 13.4751 3.66787L23.3863 9.07874C23.5598 9.16546 23.6943 9.29136 23.7901 9.45647C23.8858 9.62157 23.9333 9.79915 23.9326 9.98923V16.6488C23.9326 16.9436 23.8327 17.1909 23.6329 17.3907C23.4332 17.5905 23.1862 17.69 22.8921 17.6893C22.5979 17.6886 22.351 17.5887 22.1512 17.3896C21.9514 17.1905 21.8515 16.9436 21.8515 16.6488ZM11.498 21.3052L6.29525 18.4957C5.9484 18.305 5.67959 18.0448 5.48882 17.7153C5.29806 17.3858 5.20267 17.0303 5.20267 16.6488V12.6947L11.498 16.1025C11.8102 16.2759 12.1397 16.3626 12.4865 16.3626C12.8334 16.3626 13.1629 16.2759 13.4751 16.1025L19.7704 12.6947V16.6488C19.7704 17.0303 19.675 17.3858 19.4843 17.7153C19.2935 18.0448 19.0247 18.305 18.6778 18.4957L13.4751 21.3052C13.319 21.392 13.1587 21.4572 12.9943 21.5009C12.8299 21.5446 12.6607 21.5661 12.4865 21.5654C12.3124 21.5647 12.1432 21.5432 11.9788 21.5009C11.8143 21.4585 11.6541 21.3933 11.498 21.3052Z" fill="white"/>
</svg>
