<svg width="62" height="61" viewBox="0 0 62 61" fill="none" xmlns="http://www.w3.org/2000/svg">
<path d="M15.5653 7.57935C13.5552 7.57935 11.6274 8.37787 10.206 9.79926C8.78461 11.2206 7.98608 13.1485 7.98608 15.1586V45.4756C7.98608 47.4857 8.78461 49.4136 10.206 50.8349C11.6274 52.2563 13.5552 53.0549 15.5653 53.0549H45.8823C47.8925 53.0549 49.8203 52.2563 51.2417 50.8349C52.6631 49.4136 53.4616 47.4857 53.4616 45.4756V15.1586C53.4616 13.1485 52.6631 11.2206 51.2417 9.79926C49.8203 8.37787 47.8925 7.57935 45.8823 7.57935H15.5653ZM34.0941 40.5617C35.9131 42.027 37.7287 42.7496 39.541 42.7294C40.6527 42.7294 41.5049 42.5256 42.0978 42.118C42.3738 41.9388 42.5984 41.6908 42.7495 41.3984C42.9005 41.1061 42.9728 40.7794 42.9593 40.4506C42.9631 40.0919 42.8882 39.7368 42.7398 39.4102C42.5913 39.0837 42.373 38.7937 42.1003 38.5608C41.5074 38.0437 40.3857 37.525 38.7351 37.0045C36.7527 36.4319 35.2242 35.6908 34.1497 34.7813C33.0953 33.8718 32.558 32.6027 32.5378 30.974C32.5378 29.4362 33.2048 28.1486 34.5387 27.1111C35.8356 26.0736 37.4946 25.5548 39.5158 25.5548C42.3319 25.5548 44.5913 26.2403 46.2941 27.6113L44.3488 30.6405C43.6483 30.0959 42.8448 29.6988 41.9866 29.4733C41.2154 29.2149 40.4097 29.0744 39.5966 29.0564C38.6366 29.0564 37.8677 29.2324 37.29 29.5844C36.7173 29.9381 36.431 30.4013 36.431 30.974C36.431 31.6039 36.7822 32.1412 37.4845 32.5858C38.1919 33.0136 39.3962 33.4861 41.0973 34.0031C43.1538 34.6145 44.6174 35.4297 45.4882 36.4487C46.359 37.4677 46.7944 38.7646 46.7944 40.3394C46.7944 41.9512 46.1737 43.3408 44.9324 44.508C43.7096 45.6567 41.931 46.2588 39.5966 46.3144C36.5396 46.3144 33.9829 45.3973 31.9264 43.5631L34.0941 40.5617ZM20.123 42.1736C20.7159 42.5441 21.4291 42.7294 22.2629 42.7294C23.1336 42.7294 23.8562 42.4793 24.4305 41.979C25.0032 41.4603 25.2904 40.5617 25.292 39.2834V25.8883H29.0438V40.0059C28.9882 42.1921 28.3583 43.7669 27.154 44.7303C26.4951 45.2874 25.729 45.7035 24.903 45.9531C24.137 46.1863 23.3414 46.308 22.5408 46.3144C21.1512 46.3144 19.9192 46.0735 18.8446 45.5918C17.6959 45.0747 16.7325 44.1577 15.9544 42.8405L18.5667 40.7007C19.0467 41.3491 19.5655 41.8401 20.123 42.1736Z" fill="#FFFDFD"/>
</svg>
