<svg width="63" height="62" viewBox="0 0 63 62" fill="none" xmlns="http://www.w3.org/2000/svg">
<path fill-rule="evenodd" clip-rule="evenodd" d="M22.6115 24.2162C21.7392 24.2162 20.8755 24.388 20.0696 24.7218C19.2638 25.0556 18.5315 25.5449 17.9147 26.1617C17.2979 26.7784 16.8087 27.5107 16.4749 28.3166C16.1411 29.1224 15.9693 29.9862 15.9693 30.8584C15.9693 31.7307 16.1411 32.5945 16.4749 33.4003C16.8087 34.2062 17.2979 34.9384 17.9147 35.5552C18.5315 36.172 19.2638 36.6613 20.0696 36.9951C20.8755 37.3289 21.7392 37.5007 22.6115 37.5007H29.2538V24.2162H22.6115ZM29.2538 20.3589H22.6115C20.8495 20.3589 19.1597 19.6589 17.9138 18.413C16.6679 17.1671 15.968 15.4773 15.968 13.7153C15.968 11.9533 16.6679 10.2635 17.9138 9.01763C19.1597 7.77172 20.8495 7.07178 22.6115 7.07178H29.2538V20.3589ZM33.1111 7.07178V20.3589H39.7534C41.4927 20.3247 43.1493 19.6097 44.3672 18.3675C45.5852 17.1253 46.2675 15.455 46.2675 13.7153C46.2675 11.9756 45.5852 10.3053 44.3672 9.06316C43.1493 7.82098 41.4927 7.106 39.7534 7.07178H33.1111ZM39.7534 24.2136C38.0098 24.2134 36.3361 24.8987 35.0934 26.1217C33.8508 27.3446 33.1388 29.0071 33.1111 30.7504V30.9639C33.1324 32.2728 33.54 33.5462 34.2826 34.6242C35.0253 35.7022 36.07 36.5368 37.2854 37.023C38.5008 37.5092 39.8329 37.6254 41.1141 37.3571C42.3954 37.0887 43.5688 36.4477 44.487 35.5146C45.4052 34.5815 46.0271 33.3979 46.2748 32.1125C46.5225 30.8271 46.3848 29.4971 45.879 28.2897C45.3732 27.0822 44.522 26.0512 43.4321 25.326C42.3423 24.6008 41.0624 24.2138 39.7534 24.2136ZM22.6115 41.358C21.2972 41.3575 20.0122 41.7468 18.9191 42.4766C17.8261 43.2065 16.974 44.2441 16.4707 45.4582C15.9673 46.6723 15.8354 48.0085 16.0915 49.2976C16.3476 50.5868 16.9802 51.771 17.9094 52.7006C18.8386 53.6301 20.0226 54.2632 21.3117 54.5198C22.6007 54.7764 23.9369 54.645 25.1512 54.1421C26.3656 53.6393 27.4035 52.7876 28.1338 51.6948C28.864 50.602 29.2538 49.3172 29.2538 48.0028V41.358H22.6115Z" fill="#FFFDFD"/>
</svg>
